<mxfile host="app.diagrams.net" modified="2024-03-10T14:37:29.479Z" agent="Mozilla/5.0 (Macintosh; Intel Mac OS X 10_15_7) AppleWebKit/537.36 (KHTML, like Gecko) Chrome/122.0.0.0 Safari/537.36" version="24.0.4" etag="TVNsww5FZFd1ZDuXJhkW" type="github">
  <diagram name="Side-1" id="owH_OF1fU902TKFgRXtc">
    <mxGraphModel>
      <root>
        <mxCell id="0" />
        <mxCell id="1" parent="0" />
      </root>
    </mxGraphModel>
  </diagram>
</mxfile>
